<svg xmlns="http://www.w3.org/2000/svg" viewBox="0 0 234.7 352" style="enable-background:new 0 0 234.7 352" xml:space="preserve"><path d="M203.2 318.8V75.6c0-7.4-3.8-14.4-10.1-18.4l-65.3-41.8c-7-4.5-16.1-4.5-23.1.1L41.2 57.2c-6.1 4-9.8 10.8-9.8 18.1v264.5h7.8V79.5c-.1-11.4.2-11.9 9.8-18.1l55.9-36.5c11.4-7.6 11.4-7.6 23-.1l57.4 36.6c9.6 6.4 9.9 6.5 10.1 18.4V323c0 8.8.3 8.6-9.8 8.6l-103.1.4V142.2l32-19.4v156.4c0 .9.3 1.8.8 2.5l3.1 4.3 3-4.3c.6-.8.9-1.7.9-2.6v-156l29.7 19v162.4l7.8 7V137.8l-10.1-6.5V89.7l-31.3-24-32 24 .1 40.9-11.8 7.2V340h119.6c10.4 0 8.9-5.5 8.9-21.2zM144 127.7l-21.7-13.9V76.2L144 92.4v35.3zM92.1 92.4l22.3-16.2v37.5l-22.2 13.5-.1-34.8z" style="fill:#ccbe9f"/></svg>